<svg width="81" height="80" viewBox="0 0 81 80" fill="none" xmlns="http://www.w3.org/2000/svg">
<path d="M72.1884 8.42188H8.81152V71.5798H72.1884V8.42188Z" fill="#7E0308"/>
<path d="M60.4417 20.1211H20.5459V59.879H60.4417V20.1211Z" fill="black"/>
<path d="M41.0136 24.6068L45.5154 34.4681C45.5892 34.6275 45.743 34.7378 45.9152 34.7562L56.4565 35.8103C56.8808 35.8532 57.053 36.3742 56.7394 36.6622L48.5474 44.2069C48.4183 44.3294 48.3629 44.5072 48.3998 44.6788L50.7861 54.6688C50.8845 55.0917 50.4294 55.4288 50.0542 55.202L40.8229 49.6677C40.6691 49.5757 40.4723 49.5757 40.3124 49.6677L31.0811 55.202C30.706 55.4288 30.2447 55.0917 30.3493 54.6688L32.7355 44.6788C32.7786 44.5072 32.7232 44.3233 32.5879 44.2069L24.3898 36.6561C24.0761 36.368 24.2545 35.8471 24.6727 35.8042L35.214 34.75C35.3862 34.7316 35.54 34.6213 35.6138 34.462L40.1156 24.6006C40.2878 24.2206 40.8352 24.2206 41.0136 24.6068Z" fill="white"/>
</svg>
