<svg xmlns="http://www.w3.org/2000/svg" width="97" height="97" viewBox="0 0 97 97"><path fill="#FFF" d="M2.5 2.5h92v92h-92z"/><path fill="#640206" d="M92 5v87H5V5h87m5-5H0v97h97V0zM5 5h21v21H5zm22 0h21v21H27zm22 0h21v21H49zm22 0h21v21H71zM5 27h21v21H5z"/><path fill="#FFF" d="M27 27h21v21H27zm22 0h21v21H49z"/><path fill="#640206" d="M71 27h21v21H71zM5 49h21v21H5z"/><path fill="#FFF" d="M27 49h21v21H27zm22 0h21v21H49z"/><path fill="#640206" d="M71 49h21v21H71zM5 71h21v21H5zm22 0h21v21H27zm22 0h21v21H49zm22 0h21v21H71z"/></svg>